inDegrees=yes
name=ik_S42_A13_T02
DataType=double
version=3
OpenSimVersion=4.3-2021-08-27-4bc7ad9
endheader
time	pelvis_tilt	pelvis_list	pelvis_rotation	pelvis_tx	pelvis_ty	pelvis_tz	hip_flexion_r	hip_adduction_r	hip_rotation_r	knee_angle_r	knee_angle_r_beta	ankle_angle_r	subtalar_angle_r	mtp_angle_r	hip_flexion_l	hip_adduction_l	hip_rotation_l	knee_angle_l	knee_angle_l_beta	ankle_angle_l	subtalar_angle_l	mtp_angle_l	lumbar_extension	lumbar_bending	lumbar_rotation	arm_flex_r	arm_add_r	arm_rot_r	elbow_flex_r	pro_sup_r	wrist_flex_r	wrist_dev_r	arm_flex_l	arm_add_l	arm_rot_l	elbow_flex_l	pro_sup_l	wrist_flex_l	wrist_dev_l
6.299999999999954	1.631054330257014	1.707780244676516	9.668036036453342	0	0.9399999999999999	0	27.10761339118888	-8.898692387830559	-7.956344069373671	31.7267783591241	0.5537367434171995	0	0	0	27.10761339118888	-8.898692387830559	-7.956344069373671	31.7267783591241	0.5537367434171995	0	0	0	2.208943091679102	1.430895614363739	7.784941605238338	61.66815830401964	-40.32873874014897	17.05049921943818	68.48246034343357	98.26847917841134	0	0	73.50097460596315	-4.948961825468181	2.382209924137184	8.71283959453414	71.44211122770618	0	0
6.319999999999953	1.620711688862045	1.683337776971016	9.480378023205533	0	0.9399999999999999	0	27.12288050507816	-8.901796653938334	-7.960040871728191	31.74112357973685	0.553987114748817	0	0	0	27.12288050507816	-8.901796653938334	-7.960040871728191	31.74112357973685	0.553987114748817	0	0	0	2.188646647544176	1.422824678566409	8.057268591531088	60.19358958683129	-41.25326833311749	14.93720244979238	69.04249590598752	97.13613421746956	0	0	73.15600870640006	-4.770696159977497	2.066626566828756	8.36245391366689	71.68555960051899	0	0
6.339999999999953	1.609026083131971	1.649822301659594	9.446450577437545	0	0.9399999999999999	0	27.13895978156894	-8.905055161872093	-7.96392740504725	31.75625416602799	0.5542511932973544	0	0	0	27.13895978156894	-8.905055161872093	-7.96392740504725	31.75625416602799	0.5542511932973544	0	0	0	2.166549096020645	1.399330229192371	8.237580629375305	59.4891765778777	-41.48745748882389	13.82752664950806	68.64226921670793	95.7840665507814	0	0	72.79463378960445	-4.544346136089311	2.052804311687495	8.140957992534819	71.73333472641907	0	0
6.359999999999952	1.575860573480149	1.647562124887817	9.382932233456234	0	0.9399999999999999	0	27.1446277875584	-8.906196898212636	-7.965292554971693	31.76161082708377	0.5543446846696911	0	0	0	27.1446277875584	-8.906196898212636	-7.965292554971693	31.76161082708377	0.5543446846696911	0	0	0	2.130371458673051	1.40703215840004	8.346724969582036	59.1467409341151	-41.52343738217991	12.90628481415676	68.19253017418204	95.09739830251932	0	0	72.55290171881443	-4.361301962241929	2.138984376353555	7.90203578549055	71.46194513752874	0	0
6.379999999999952	1.579272801704805	1.620989157647102	9.271699878138925	0	0.9399999999999999	0	27.15754163818232	-8.908802217573394	-7.96840646774372	31.7737875583742	0.5545572087228398	0	0	0	27.15754163818232	-8.908802217573394	-7.96840646774372	31.7737875583742	0.5545572087228398	0	0	0	2.126592355463452	1.386427409579853	8.485778168128766	58.76557252185706	-41.37009634230912	11.83324490131066	67.38810514741783	93.20078351173154	0	0	72.3255851897154	-4.187470078978344	2.37898860972473	7.812043281002466	70.63169875700214	0	0
6.399999999999952	1.569034458723603	1.618441551576492	9.208440185022029	0	0.9399999999999999	0	27.16864427595961	-8.911038970344608	-7.971081881127757	31.78425809782454	0.5547399541107081	0	0	0	27.16864427595961	-8.911038970344608	-7.971081881127757	31.78425809782454	0.5547399541107081	0	0	0	2.115972894587083	1.387277964419288	8.521060940711289	58.61237171084656	-40.58541032423926	10.37704809981056	65.78880866359179	91.89500984571033	0	0	72.08041605136846	-4.129431364446608	2.537754882357198	7.903772474808103	69.74165177662108	0	0
6.419999999999951	1.596141624300715	1.600860683167372	9.268166659411639	0	0.9399999999999999	0	27.17462118468337	-8.912228165639199	-7.972511129886742	31.78995355036032	0.5548393585098486	0	0	0	27.17462118468337	-8.912228165639199	-7.972511129886742	31.78995355036032	0.5548393585098486	0	0	0	2.141801424872946	1.361898953276574	8.429661195843854	58.54375994940526	-39.8595502354159	9.692928820407666	64.4235568044538	89.94800318858636	0	0	71.76532606044621	-4.114339284117703	2.552966837893367	8.045085394394043	69.41910324675243	0	0
6.439999999999951	1.62458607733143	1.588526482738724	9.422430599405903	0	0.9399999999999999	0	27.18230522938358	-8.913763566618611	-7.974353836997959	31.79724223213891	0.5549665700050151	0	0	0	27.18230522938358	-8.913763566618611	-7.974353836997959	31.79724223213891	0.5549665700050151	0	0	0	2.171232302576211	1.33849485072255	8.260473993801567	58.60872277342474	-39.06059378394265	9.127125424148927	63.13235267896085	87.46828367213074	0	0	71.42316126725372	-4.149248995609894	2.400664309035606	8.307814650489478	69.64716463143695	0	0
6.45999999999995	1.65145145335614	1.579139890502956	9.526040200647596	0	0.9399999999999999	0	27.18974320002291	-8.915250666004543	-7.976138476568942	31.80428827885527	0.5550895467194649	0	0	0	27.18974320002291	-8.915250666004543	-7.976138476568942	31.80428827885527	0.5550895467194649	0	0	0	2.198866911987208	1.319893777724195	8.136478891818879	58.72048366650571	-38.16391570609267	8.710714398850348	61.9762592866743	85.45103726649158	0	0	71.33933714195388	-4.03833227717094	2.449972257813158	8.435377159961723	69.94740602411295	0	0
6.47999999999995	1.658171974777991	1.582593623617846	9.955984909558506	0	0.9399999999999999	0	27.20202168020917	-8.917710184489973	-7.979088665544388	31.81588794698381	0.5552919991204466	0	0	0	27.20202168020917	-8.917710184489973	-7.979088665544388	31.81588794698381	0.5552919991204466	0	0	0	2.218233332559629	1.304160770860194	7.68854143748161	58.88314080258963	-37.06744934696249	8.734612950907142	61.2343674814054	79.60320708775816	0	0	71.02283051920209	-4.028548631390247	1.967985212035975	8.884736937685883	70.57751705374933	0	0
6.499999999999949	1.679073342216791	1.55101769908512	10.33915628907743	0	0.9399999999999999	0	27.21569514369771	-8.920451380737289	-7.982376591868051	31.82877945575262	0.555516998394012	0	0	0	27.21569514369771	-8.920451380737289	-7.982376591868051	31.82877945575262	0.555516998394012	0	0	0	2.242894661143486	1.253993216137385	7.342630299540914	58.90430866740628	-35.96855508242614	8.734700924573319	60.80698773096415	76.48537111989593	0	0	70.61956916663291	-3.730544794899934	0.5455512410580878	9.456403707301144	71.72896373442211	0	0
